<?xml version="1.0" encoding="UTF-8"?>
<svg id="katman_1" data-name="katman 1" xmlns="http://www.w3.org/2000/svg" viewBox="0 0 212.59 212.59">
  <defs>
    <style>
      .cls-1, .cls-2, .cls-3 {
        stroke-width: 0px;
      }

      .cls-2 {
        fill: #fff;
      }

      .cls-3 {
        fill: #0510dc;
      }
    </style>
  </defs>
  <path class="cls-3" d="m66.15,212.59C29.61,212.59,0,182.98,0,146.44v-80.3C0,29.61,29.61,0,66.15,0h80.3c36.53,0,66.15,29.61,66.15,66.15v80.3c0,36.53-29.61,66.15-66.15,66.15"/>
  <g>
    <g>
      <path class="cls-2" d="m166.07,72.39c-18.7,0-33.91,15.21-33.91,33.91s15.21,33.91,33.91,33.91c.41,0,.81,0,1.22-.03,2.33-.08,4.6-.4,6.79-.93v-19.77c-2.01,1.22-4.32,2-6.79,2.19-.4.03-.81.05-1.22.05-8.52,0-15.42-6.9-15.42-15.42s6.9-15.42,15.42-15.42c.41,0,.82.02,1.22.05,2.47.19,4.78.97,6.79,2.19v-6.33c-2.11-.87-4.4-1.41-6.79-1.55-.41-.02-.81-.03-1.22-.03-11.63,0-21.08,9.46-21.08,21.08s9.46,21.08,21.08,21.08c.41,0,.81-.01,1.22-.03v7.17c-.41.02-.81.03-1.22.03-15.6,0-28.24-12.64-28.24-28.24s12.64-28.24,28.24-28.24c.41,0,.81,0,1.22.03,2.35.1,4.63.49,6.79,1.13v-5.86c-2.19-.54-4.46-.85-6.79-.93-.41-.02-.81-.03-1.22-.03Z"/>
      <path class="cls-2" d="m180.87,75.79v6.44c8.07,4.98,13.44,13.89,13.44,24.06s-5.37,19.08-13.44,24.06v6.44c11.3-5.51,19.1-17.11,19.1-30.5s-7.8-24.99-19.1-30.5Z"/>
    </g>
    <g>
      <path class="cls-1" d="m57.98,114.67l17.4,11.51c-6.08,8.61-16.28,14.03-28.25,14.03-19.64,0-34.52-14.59-34.52-33.95s14.87-33.86,34.52-33.86c11.97,0,22.17,5.43,28.25,13.94l-17.4,11.51c-2.43-3.18-6.27-5.05-10.85-5.05-7.76,0-13.47,5.61-13.47,13.47s5.71,13.47,13.47,13.47c4.58,0,8.42-1.87,10.85-5.05Z"/>
      <path class="cls-1" d="m126.17,121.4v17.59h-46.11v-65.48h45.27v17.59h-24.23v7.3h21.23v15.15h-21.23v7.86h25.07Z"/>
    </g>
  </g>
</svg>