<?xml version="1.0" encoding="UTF-8"?>
<svg id="katman_1" data-name="katman 1" xmlns="http://www.w3.org/2000/svg" viewBox="0 0 212.59 212.59">
  <defs>
    <style>
      .cls-1 {
        stroke-width: 0px;
      }
    </style>
  </defs>
  <path class="cls-1" d="m146.44,0h-80.3C29.61,0,0,29.61,0,66.15v80.29c0,36.53,29.61,66.15,66.14,66.15h80.3c36.53,0,66.15-29.62,66.15-66.15v-80.29C212.59,29.61,182.97,0,146.44,0ZM47.13,119.72c4.58,0,8.42-1.87,10.85-5.05l17.4,11.5c-6.08,8.61-16.28,14.03-28.25,14.03-19.65,0-34.52-14.59-34.52-33.95s14.87-33.86,34.52-33.86c11.97,0,22.17,5.42,28.25,13.93l-17.4,11.51c-2.43-3.18-6.27-5.05-10.85-5.05-7.77,0-13.47,5.61-13.47,13.47s5.7,13.47,13.47,13.47Zm79.04,19.27h-46.11v-65.48h45.27v17.58h-24.23v7.3h21.24v15.15h-21.24v7.86h25.07v17.59Zm47.91-59.78c-2.17-.65-4.45-1.03-6.8-1.13-.4-.02-.81-.03-1.22-.03-15.59,0-28.24,12.65-28.24,28.24s12.65,28.25,28.24,28.25c.41,0,.82-.01,1.22-.03v-7.17c-.4.03-.81.04-1.22.04-11.62,0-21.08-9.46-21.08-21.09s9.46-21.08,21.08-21.08c.41,0,.82.01,1.22.03,2.4.14,4.68.68,6.8,1.55v6.33c-2.01-1.23-4.32-2.01-6.8-2.19-.4-.04-.81-.06-1.22-.06-8.51,0-15.42,6.91-15.42,15.42s6.91,15.42,15.42,15.42c.41,0,.82-.01,1.22-.05,2.48-.18,4.79-.96,6.8-2.18v19.76c-2.19.54-4.46.86-6.8.94-.4.01-.81.02-1.22.02-18.69,0-33.9-15.21-33.9-33.91s15.21-33.9,33.9-33.9c.41,0,.82.01,1.22.02,2.34.08,4.61.4,6.8.93v5.87Zm6.79,57.59v-6.45c8.07-4.98,13.44-13.89,13.44-24.06s-5.37-19.08-13.44-24.05v-6.45c11.3,5.51,19.1,17.11,19.1,30.5s-7.8,25-19.1,30.51Z"/>
</svg>