<?xml version="1.0" encoding="utf-8"?>
<!-- Generator: Adobe Illustrator 27.9.0, SVG Export Plug-In . SVG Version: 6.00 Build 0)  -->
<svg version="1.1" id="katman_1" xmlns="http://www.w3.org/2000/svg" xmlns:xlink="http://www.w3.org/1999/xlink" x="0px" y="0px"
	 viewBox="0 0 1080 1080" style="enable-background:new 0 0 1080 1080;" xml:space="preserve">
<g>
	<g>
		<path d="M540,0C242.24,0,0,242.24,0,540c0,297.76,242.24,540,540,540c6.52,0,12.98-0.14,19.43-0.42
			c37.12-1.25,73.28-6.31,108.18-14.85v-93.4V850.59V749.91c-31.99,19.43-68.77,31.85-108.18,34.83
			c-6.38,0.56-12.91,0.83-19.43,0.83c-135.66,0-245.57-109.91-245.57-245.57c0-135.59,109.91-245.57,245.57-245.57
			c6.52,0,13.05,0.28,19.43,0.83c39.41,2.98,76.19,15.4,108.18,34.9V229.41c-33.65-13.88-70.08-22.48-108.18-24.63
			c-6.45-0.35-12.91-0.56-19.43-0.56c-185.13,0-335.78,150.65-335.78,335.78c0,185.13,150.65,335.78,335.78,335.78
			c6.52,0,12.98-0.21,19.43-0.55v114.15c-6.45,0.28-12.91,0.42-19.43,0.42C291.58,989.79,90.21,788.42,90.21,540
			C90.21,291.58,291.58,90.21,540,90.21c6.52,0,12.98,0.14,19.43,0.42c37.4,1.6,73.69,7.77,108.18,18.04v-93.4
			c-34.9-8.54-71.06-13.6-108.18-14.85C552.98,0.14,546.52,0,540,0z"/>
	</g>
	<g>
		<path d="M775.79,54.26v102.63c128.44,79.24,214,221.15,214,383.11c0,161.96-85.56,303.86-214,383.11v102.63
			C955.72,938.03,1080,753.24,1080,540C1080,326.76,955.72,141.97,775.79,54.26z"/>
	</g>
</g>
</svg>
