<?xml version="1.0" encoding="utf-8"?>
<!-- Generator: Adobe Illustrator 27.9.0, SVG Export Plug-In . SVG Version: 6.00 Build 0)  -->
<svg version="1.1" id="katman_1" xmlns="http://www.w3.org/2000/svg" xmlns:xlink="http://www.w3.org/1999/xlink" x="0px" y="0px"
	 viewBox="0 0 1080 1080" style="enable-background:new 0 0 1080 1080;" xml:space="preserve">
<g>
	<path d="M540,1080c-144.24,0-279.85-56.17-381.84-158.16C56.17,819.85,0,684.24,0,540s56.17-279.85,158.16-381.84
		C260.15,56.17,395.76,0,540,0s279.85,56.17,381.84,158.16C1023.83,260.15,1080,395.76,1080,540s-56.17,279.85-158.16,381.84
		C819.85,1023.83,684.24,1080,540,1080z M540,37.5C262.92,37.5,37.5,262.92,37.5,540s225.42,502.5,502.5,502.5
		s502.5-225.42,502.5-502.5S817.08,37.5,540,37.5z"/>
	<g>
		<path d="M962.98,488.38v41.49c0,114.22-92.91,207.15-207.13,207.15H575.68v-37.5h180.17c93.54,0,169.63-76.11,169.63-169.65
			v-41.49c0-93.53-76.09-169.63-169.63-169.63h-328.8c-93.54,0-169.65,76.11-169.65,169.63v22.93h-37.5v-22.93
			c0-114.21,92.93-207.13,207.15-207.13h328.8C870.08,281.25,962.98,374.17,962.98,488.38z"/>
		<path d="M427.05,699.52c-93.54,0-169.65-76.11-169.65-169.65v-40.44l-21.62,3.36c-5.38,0.83-10.69,1.97-15.88,3.41
			c-26.53,7.35-50.51,22.48-68.74,43.54c-22.01,25.48-34.14,58.09-34.14,91.8v26.79c0,77.44,62.98,140.42,140.4,140.42h212.36
			c46.71,0,90.32-23.4,116.29-61.73c2.1-3.07,4.07-6.24,5.92-9.51l15.88-27.99H427.05z M469.78,761.25H257.42
			c-56.74,0-102.9-46.16-102.9-102.92v-26.79c0-42.71,26.96-80.66,65.48-95.87c3.07,111.56,94.78,201.36,207.06,201.36h109.03
			C517.76,752.42,494.36,761.25,469.78,761.25z"/>
		<g>
			<rect x="427.95" y="418.22" width="143.93" height="37.5"/>
			<rect x="609.38" y="418.22" width="145.58" height="37.5"/>
			<rect x="427.95" y="490.39" width="72.58" height="37.5"/>
			<rect x="538.03" y="490.39" width="106.82" height="37.5"/>
			<rect x="682.35" y="490.39" width="72.6" height="37.5"/>
			<rect x="427.95" y="562.54" width="72.58" height="37.5"/>
			<rect x="538.03" y="562.54" width="106.82" height="37.5"/>
			<rect x="682.35" y="562.54" width="72.6" height="37.5"/>
		</g>
	</g>
</g>
</svg>
