<?xml version="1.0" encoding="utf-8"?>
<!-- Generator: Adobe Illustrator 27.9.0, SVG Export Plug-In . SVG Version: 6.00 Build 0)  -->
<svg version="1.1" id="katman_1" xmlns="http://www.w3.org/2000/svg" xmlns:xlink="http://www.w3.org/1999/xlink" x="0px" y="0px"
	 viewBox="0 0 1080 1080" style="enable-background:new 0 0 1080 1080;" xml:space="preserve">
<g>
	<g>
		<path d="M539.96,19.95c70.24,0,138.35,13.73,202.43,40.8c61.91,26.16,117.52,63.61,165.26,111.33
			c47.75,47.72,85.24,103.29,111.43,165.19c27.11,64.07,40.88,132.16,40.91,202.39c0.04,70.3-13.64,138.46-40.66,202.59
			c-26.11,61.95-63.51,117.58-111.18,165.35c-47.67,47.77-103.21,85.28-165.07,111.48c-64.04,27.13-132.12,40.91-202.38,40.96
			l-0.41,0c-70.25,0-138.38-13.71-202.49-40.76c-61.94-26.13-117.57-63.55-165.34-111.21c-47.77-47.66-85.29-103.17-111.5-164.98
			C33.83,679.12,20.05,611.12,20,541c-0.05-70.37,13.66-138.62,40.72-202.84c26.15-62.04,63.61-117.76,111.35-165.6
			c47.73-47.84,103.34-85.41,165.26-111.64c64.1-27.16,132.23-40.94,202.48-40.96H539.96 M539.96-0.05c-0.05,0-0.09,0-0.14,0
			C241.35,0.03-0.19,242.12,0,541.01c0.19,297.89,241.94,539.04,540.3,539.04c0.15,0,0.29,0,0.43,0
			c298.36-0.23,539.45-241.82,539.27-540.4C1079.84,241.34,838.29-0.05,539.96-0.05L539.96-0.05z"/>
	</g>
	<g>
		<path d="M540.62,194.96L540.62,194.96l0.52,0c104.24,0.28,188.93,85.86,188.79,190.76c-0.16,104.65-85.31,189.91-189.82,190.05
			l-0.28,0c-50.59,0-98.2-19.81-134.06-55.79c-17.56-17.62-31.34-38.14-40.94-60.99c-9.94-23.66-14.93-48.78-14.85-74.68
			c0.15-50.69,20.03-98.26,55.97-133.96C441.89,214.63,489.72,194.96,540.62,194.96 M540.62,174.96
			c-116.21,0.01-210.29,93.4-210.64,209.28c-0.37,116.63,93.81,211.53,209.85,211.53c0.11,0,0.21,0,0.32,0
			c115.55-0.16,209.61-94.33,209.78-210.02c0.16-116-93.4-210.48-208.73-210.79C540.99,174.96,540.81,174.96,540.62,174.96
			L540.62,174.96z"/>
	</g>
	<g>
		<path d="M347.75,599.6c0.59,0.39,1.64,1.18,3.21,2.71c53.01,51.87,116.4,78.16,188.41,78.16c5.78,0,11.7-0.17,17.59-0.51
			c64.16-3.72,120.71-28.6,168.09-73.95c4.01-3.84,6.22-5.55,7.36-6.31c1.23,0.5,3.62,1.66,8,4.4
			c43.69,27.29,80.46,60.56,109.29,98.89c28.8,38.29,50.6,82.85,64.8,132.46c0.02,0.06,0.04,0.13,0.05,0.18
			c-0.15,0.21-0.34,0.46-0.59,0.76c-37.37,46.03-80.17,83.83-127.21,112.34c-47.52,28.8-100.78,48.99-158.32,60
			c-20.63,3.95-41.57,5.82-60.04,7.47c-6.86,0.61-13.37,1.19-19.19,1.83c-40.5-1.22-79.14-5.88-114.88-13.88
			c-36.07-8.07-70.43-19.8-102.12-34.88c-31.66-15.07-61.77-34-89.49-56.28c-27.37-22-53.35-48.01-77.24-77.32
			c14.32-50.28,36.4-95.33,65.65-133.91c29.66-39.13,67.64-72.86,112.88-100.26C345.87,600.37,347.08,599.84,347.75,599.6
			 M731.88,579.4c-6.41,0-12.09,3.96-20.67,12.17C667.72,633.2,615.78,656.52,555.8,660c-5.53,0.32-11.01,0.48-16.43,0.48
			c-67.02,0-125.31-24.4-174.42-72.46c-5.88-5.76-11.1-8.6-16.8-8.6c-4.38,0-9.05,1.67-14.52,4.99
			c-95.36,57.75-157.88,140.42-187.96,247.76c-1.69,6.02-0.58,10.14,3.2,14.82c100.68,124.25,231.55,186.33,401.14,191.08
			c20.68-2.35,51.84-3.88,82.17-9.69c120.97-23.15,219.72-83.82,297.3-179.38c5.01-6.19,6.43-11.42,4.23-19.07
			C903.85,725.59,843.03,644.64,751,587.14C742.82,582.03,737.11,579.4,731.88,579.4L731.88,579.4z"/>
	</g>
</g>
</svg>
