<?xml version="1.0" encoding="utf-8"?>
<!-- Generator: Adobe Illustrator 27.9.0, SVG Export Plug-In . SVG Version: 6.00 Build 0)  -->
<svg version="1.1" id="katman_1" xmlns="http://www.w3.org/2000/svg" xmlns:xlink="http://www.w3.org/1999/xlink" x="0px" y="0px"
	 viewBox="0 0 1080 1080" style="enable-background:new 0 0 1080 1080;" xml:space="preserve">
<style type="text/css">
	.st0{font-family:'MADETOMMY-ExtraBold';}
	.st1{font-size:588.9232px;}
</style>
<g>
	<path d="M540,43.2c90.18,0,178.47,24.39,255.34,70.54c74.72,44.86,136.62,108.79,179.01,184.88
		c40.86,73.37,62.45,156.84,62.45,241.38c0,67.09-13.13,132.14-39.02,193.36c-25.02,59.15-60.85,112.29-106.49,157.93
		c-45.64,45.64-98.77,81.47-157.93,106.49c-61.22,25.89-126.28,39.02-193.36,39.02c-82.19,0-163.62-20.48-235.47-59.23
		C143.33,890.62,43.2,722.95,43.2,540c0-67.09,13.13-132.14,39.02-193.36c25.02-59.15,60.85-112.29,106.49-157.93
		c45.64-45.64,98.77-81.47,157.93-106.49C407.86,56.33,472.91,43.2,540,43.2 M540,0C241.77,0,0,241.77,0,540
		c0,205.61,114.91,384.37,284.02,475.59C360.2,1056.67,447.38,1080,540,1080c298.23,0,540-241.77,540-540
		c0-95.23-24.65-184.7-67.91-262.4C919.84,112.02,743,0,540,0L540,0z"/>
	<path d="M985.41,319.68c33.68,68.09,51.39,143.77,51.39,220.32c0,67.09-13.13,132.14-39.02,193.36
		c-25.02,59.15-60.85,112.29-106.49,157.93c-45.64,45.64-98.77,81.47-157.93,106.49c-61.22,25.89-126.28,39.02-193.36,39.02
		c-74.04,0-147.47-16.63-213.84-48.25V548.51c0-126.18,102.65-228.83,228.83-228.83H985.41 M987.25,276.48H554.99
		c-150.23,0-272.03,121.8-272.03,272.03v443.06c0,8.1,0.35,16.09,1.06,24.02C360.2,1056.67,447.38,1080,540,1080
		c298.23,0,540-241.77,540-540c0-95.23-24.65-184.7-67.91-262.4C1003.9,276.87,995.63,276.48,987.25,276.48L987.25,276.48z"/>
	<text transform="matrix(1 0 0 1 448.8076 848.5771)" class="st0 st1">T</text>
</g>
</svg>
